<?xml version="1.0" encoding="utf-8"?>
<!-- Generator: Adobe Illustrator 18.0.0, SVG Export Plug-In . SVG Version: 6.00 Build 0)  -->
<!DOCTYPE svg PUBLIC "-//W3C//DTD SVG 1.1//EN" "http://www.w3.org/Graphics/SVG/1.1/DTD/svg11.dtd">
<svg version="1.1" id="Layer_1" xmlns="http://www.w3.org/2000/svg" xmlns:xlink="http://www.w3.org/1999/xlink" x="0px" y="0px"
	 viewBox="0 0 343.6 119.8" enable-background="new 0 0 343.6 119.8" xml:space="preserve">
<path d="M343.6,23.5c0-13-10.7-23.5-23.8-23.5L0,0v96.3c0,13,10.7,23.5,23.8,23.5l319.8,0h0h0V23.5z"/>
<path fill="#E2231A" d="M51.3,47.9c0,0,6.8-9,9.5-12.5c0.8,3.9,2.4,12.4,2.4,12.4h13.2c-4.2,3.1-12.5,9.3-12.5,9.3s0.7,12.5,1,16.8
	c-3.5-2.5-13-9.4-13-9.4S41,70.3,35.3,73.4C38.7,68,45,58,45,58s-5.4-7-7.6-10 M91.3,42.7H68.1c-0.4-2-4.2-19.8-4.2-19.8
	S49.7,41.7,48.8,42.8H26.6c0,0,10.6,14.4,11.7,15.8c-0.9,1.6-16.7,27.9-16.7,27.9S49,71.8,50.6,70.9c1.4,1,20.5,14.9,20.5,14.9
	s-1.3-25.5-1.4-26.9C70.8,58.1,91.3,42.7,91.3,42.7"/>
<polygon fill="#FFFFFF" points="278,41.9 278,81 283.4,81 283.4,41.9 283,41.9 "/>
<path fill="#FFFFFF" d="M264.2,55.9v-2.3h-5.3V81h5.5V65.2c0-2.2,0.7-3.9,2.1-5.1c1.5-1.4,3.7-2,6.3-1.9l0.5,0v-5.2l-0.4,0
	C269.5,52.6,266.3,53.8,264.2,55.9"/>
<path fill="#FFFFFF" d="M222.6,53.6h-5.1c0,0-4.7,16.2-5.5,18.7c-0.7-2.6-5.5-18.7-5.5-18.7h-5.4c0,0-4.8,16.2-5.5,18.7
	c-0.8-2.6-5.5-18.7-5.5-18.7h-5.7l8.5,27.3h5.4c0,0,4.8-16.4,5.5-19c0.8,2.6,5.5,19,5.5,19h5.5l8.5-27.3H222.6z"/>
<polygon fill="#FFFFFF" points="121.9,44.8 117,44.8 116.2,50.9 121.7,50.9 122.4,44.8 "/>
<path fill="#FFFFFF" d="M140.1,53.3c-3,0-5.7,1.1-7.9,2.9c0.1-0.8,0.3-2.2,0.3-2.2h-5.3l-3.5,27.3h5.5l2.1-16.6
	c0.5-3.7,3.8-6.6,7.7-6.6c1.8,0,3.2,0.5,4.2,1.5c1.1,1.2,1.5,2.9,1.2,5l-2.1,16.6h5.4l2.1-16.3c0.5-3.7-0.3-6.8-2.2-8.9
	C145.7,54.3,143.2,53.3,140.1,53.3"/>
<polygon fill="#FFFFFF" points="115.8,54 112.3,81.3 117.8,81.3 121.3,54 120.8,54 "/>
<path fill="#FFFFFF" d="M98.5,58.2c3.2,0,5.7,1.7,6.9,4.6l0.1,0.3h5.7l-0.1-0.5c-1.3-5.7-5.9-9.2-12.2-9.2c-7.8,0-15,6.4-16,14.3
	c-0.5,3.9,0.6,7.6,3.1,10.4c2.3,2.6,5.7,4,9.4,4c6.2,0,11.8-3.5,14.4-9.1l0.3-0.6h-5.8l-0.1,0.2c-1.9,2.9-4.9,4.6-8.2,4.6
	c-2.2,0-4.1-0.8-5.5-2.4c-1.6-1.8-2.4-4.3-2-7C89.1,62.5,93.6,58.2,98.5,58.2"/>
<path fill="#FFFFFF" d="M317.6,81V41.9h-0.5h-5v15c-1.9-2-5.1-3.9-8.9-3.9c-8,0-14.3,6.3-14.3,14.4c0,8,6.3,14.3,14.3,14.3
	c4,0,7.2-2,9.1-4.1V81H317.6z M312.3,67.3c0,5.2-4.2,9.6-9.1,9.6c-5,0-9-4.3-9-9.6c0-5.4,4-9.7,9-9.7
	C308.2,57.6,312.3,62,312.3,67.3"/>
<path fill="#FFFFFF" d="M253.4,67.4c0-8.1-6.3-14.4-14.3-14.4c-8,0-14.3,6.3-14.3,14.4c0,8,6.3,14.2,14.3,14.2
	C247.1,81.6,253.4,75.4,253.4,67.4 M248.2,67.3c0,5.3-4.1,9.5-9.1,9.5c-5,0-9-4.3-9-9.5c0-5.4,4.1-9.8,9-9.8
	C244.1,57.6,248.2,61.9,248.2,67.3"/>
<path fill="#FFFFFF" d="M181.7,66.5c0-3.6-1.1-6.8-3.3-9.2c-2.3-2.5-5.6-4-9.3-4c-7.9,0-15.1,6.4-16.1,14.3
	c-0.5,3.9,0.6,7.6,3.1,10.3c2.4,2.6,5.9,4,9.8,4c6.5,0,11.8-3.3,14.6-9.1l0.3-0.6h-5.8l-0.1,0.2c-1.9,3-4.8,4.7-8.4,4.7
	c-2.2,0-4.2-0.8-5.7-2.2c-1.5-1.4-2.2-3.4-2.3-5.6h23.1l0-0.4C181.7,68.1,181.7,67.2,181.7,66.5 M176.3,64.6h-17.2
	c1.9-4.4,6.2-6.7,9.6-6.7C172.5,57.9,175.7,60.7,176.3,64.6"/>
</svg>
