<?xml version="1.0" encoding="iso-8859-1"?>
<!-- Generator: Adobe Illustrator 18.0.0, SVG Export Plug-In . SVG Version: 6.00 Build 0)  -->
<!DOCTYPE svg PUBLIC "-//W3C//DTD SVG 1.1//EN" "http://www.w3.org/Graphics/SVG/1.1/DTD/svg11.dtd">
<svg version="1.1" id="Capa_1" xmlns="http://www.w3.org/2000/svg" xmlns:xlink="http://www.w3.org/1999/xlink" x="0px" y="0px"
	 viewBox="0 0 53.129 53.97" style="enable-background:new 0 0 53.129 53.97;" xml:space="preserve">
<path d="M45.393,8.789C41.146,3.285,34.11,0,26.564,0c-7.549,0-14.585,3.287-18.83,8.794C2.76,13.915,0.013,20.706,0,27.929
	c0.012,5.807,1.793,11.344,5.152,16.021c1.513,5.211,6.221,8.887,11.617,9.121c0.275,0.54,0.836,0.898,1.472,0.898
	c0.089,0,0.171-0.009,0.275-0.023l4.479-0.778c0.793-0.139,1.367-0.822,1.367-1.625c0-0.09-0.008-0.176-0.023-0.281l-4.102-23.618
	c-0.144-0.787-0.826-1.36-1.627-1.362c-0.115,0-0.219,0.011-0.321,0.032l-4.437,0.771c-0.793,0.141-1.367,0.821-1.365,1.6
	c0,0.01,0,0.021-0.002,0.032c-2.84,1.173-5.145,3.336-6.502,6.053c-0.701-2.21-1.056-4.502-1.056-6.842
	c0-4.448,1.274-8.73,3.688-12.402c1.594-0.52,2.715-1.4,3.387-2.067l0.028-0.028l0.026-0.032c3.178-3.817,8.599-6.094,14.506-6.094
	c5.604-0.001,10.868,2.095,14.08,5.607l0.056,0.062c0.09,0.097,0.165,0.183,0.263,0.295c0.566,0.599,1.76,1.655,3.542,2.246
	c2.418,3.677,3.696,7.961,3.696,12.414c0,2.343-0.355,4.637-1.057,6.845c-1.357-2.719-3.662-4.883-6.506-6.056v-0.006
	c0-0.805-0.574-1.488-1.366-1.626l-4.458-0.776c-0.092-0.019-0.191-0.027-0.301-0.027c-0.802,0.002-1.484,0.578-1.625,1.37
	l-4.1,23.592c-0.018,0.092-0.027,0.19-0.027,0.298c0,0.803,0.574,1.486,1.367,1.627l4.488,0.779c0.088,0.014,0.174,0.022,0.27,0.022
	c0.492,0,0.939-0.216,1.246-0.566l0.234,0.041l0.066-0.378c5.359-0.263,10.032-3.926,11.54-9.105
	c3.363-4.684,5.145-10.222,5.155-16.035C53.116,20.704,50.369,13.91,45.393,8.789z M18.212,28.501l3.934,22.639l-3.504,0.61
	l-3.934-22.639L18.212,28.501z M34.486,51.75l-3.504-0.61l3.934-22.638l3.506,0.609L38.4,29.23L34.486,51.75z"/>
<g>
</g>
<g>
</g>
<g>
</g>
<g>
</g>
<g>
</g>
<g>
</g>
<g>
</g>
<g>
</g>
<g>
</g>
<g>
</g>
<g>
</g>
<g>
</g>
<g>
</g>
<g>
</g>
<g>
</g>
</svg>
