<?xml version="1.0" encoding="iso-8859-1"?>
<!-- Generator: Adobe Illustrator 16.0.0, SVG Export Plug-In . SVG Version: 6.00 Build 0)  -->
<!DOCTYPE svg PUBLIC "-//W3C//DTD SVG 1.1//EN" "http://www.w3.org/Graphics/SVG/1.1/DTD/svg11.dtd">
<svg version="1.1" id="Layer_1" xmlns="http://www.w3.org/2000/svg" xmlns:xlink="http://www.w3.org/1999/xlink" x="0px" y="0px"
	 width="22.67px" height="31.105px" viewBox="0 0 22.67 31.105" style="enable-background:new 0 0 22.67 31.105;"
	 xml:space="preserve">
<path d="M20.894,7.205c-0.147-0.208-0.301-0.41-0.464-0.606c-1.643-1.969-4.055-3.265-6.767-3.45V0h-1.561v0.627
	C5.415,0.708,0,6.165,0,12.869c0,6.408,4.947,11.679,11.223,12.202v3.079H7.932v1.182H5.763v1.773H18.7v-1.773h-2.134V28.15h-2.904
	v-5.735c2.712-0.186,5.124-1.481,6.767-3.45c0.163-0.195,0.317-0.397,0.464-0.605c1.117-1.578,1.777-3.501,1.777-5.577
	C22.67,10.706,22.011,8.782,20.894,7.205z M21.875,12.701h-3.157c-0.007-1.42-0.198-2.766-0.529-3.978
	c0.769-0.289,1.465-0.64,2.065-1.041C21.257,9.105,21.858,10.833,21.875,12.701z M19.788,7.075
	c-0.529,0.346-1.143,0.653-1.825,0.907c-0.509-1.504-1.247-2.758-2.137-3.616C17.385,4.893,18.75,5.841,19.788,7.075z M8.119,12.701
	c0.007-1.328,0.18-2.584,0.476-3.712c1.21,0.366,2.568,0.587,4.007,0.622v3.09H8.119z M12.603,13.494v2.459
	c-1.44,0.035-2.798,0.255-4.011,0.623c-0.248-0.948-0.408-1.986-0.456-3.082H12.603z M8.076,7.998C7.378,7.74,6.75,7.429,6.21,7.075
	c1.054-1.251,2.443-2.211,4.032-2.732C9.339,5.205,8.59,6.473,8.076,7.998z M7.851,8.739c-0.329,1.208-0.517,2.547-0.524,3.961
	H4.123c0.017-1.868,0.618-3.596,1.621-5.019C6.356,8.09,7.066,8.447,7.851,8.739z M7.343,13.494c0.05,1.182,0.229,2.304,0.509,3.331
	c-0.787,0.293-1.497,0.649-2.108,1.059c-0.89-1.262-1.462-2.763-1.592-4.389H7.343z M8.075,17.566
	c0.514,1.526,1.265,2.793,2.167,3.654c-1.588-0.521-2.976-1.481-4.031-2.733C6.751,18.135,7.378,17.824,8.075,17.566z M8.813,17.321
	c1.139-0.338,2.424-0.542,3.789-0.575v4.879C10.991,21.376,9.603,19.709,8.813,17.321z M12.603,8.817
	C11.238,8.784,9.953,8.58,8.815,8.243c0.789-2.388,2.175-4.056,3.787-4.306V8.817z M13.396,13.494h4.513
	c-0.049,1.1-0.209,2.143-0.459,3.095c-1.223-0.375-2.597-0.601-4.054-0.636V13.494z M13.396,12.701V9.61
	c1.456-0.034,2.828-0.26,4.05-0.634c0.298,1.133,0.472,2.391,0.479,3.725H13.396z M17.224,8.231
	c-1.148,0.345-2.447,0.553-3.829,0.586V3.931C15.023,4.156,16.427,5.827,17.224,8.231z M1.539,12.869
	c0-5.855,4.726-10.624,10.563-10.703v0.995C9.484,3.403,7.164,4.684,5.568,6.599C5.405,6.794,5.251,6.997,5.104,7.205
	c-1.118,1.578-1.778,3.501-1.778,5.577c0,2.076,0.66,4,1.778,5.577c0.147,0.208,0.302,0.41,0.464,0.606
	c1.658,1.988,4.101,3.289,6.845,3.455v1.151c-0.054,0.003-0.108,0.008-0.164,0.008C6.343,23.579,1.539,18.774,1.539,12.869z
	 M13.396,21.632v-4.885c1.382,0.033,2.683,0.242,3.831,0.586C16.43,19.737,15.023,21.407,13.396,21.632z M15.826,21.196
	c0.89-0.857,1.628-2.11,2.138-3.615c0.681,0.254,1.293,0.56,1.822,0.907C18.748,19.72,17.385,20.671,15.826,21.196z M20.253,17.883
	c-0.6-0.402-1.296-0.754-2.064-1.043c0.281-1.031,0.462-2.159,0.513-3.346h3.144C21.716,15.12,21.144,16.621,20.253,17.883z"/>
<g>
</g>
<g>
</g>
<g>
</g>
<g>
</g>
<g>
</g>
<g>
</g>
<g>
</g>
<g>
</g>
<g>
</g>
<g>
</g>
<g>
</g>
<g>
</g>
<g>
</g>
<g>
</g>
<g>
</g>
</svg>
