<?xml version="1.0" encoding="utf-8"?>
<!-- Generator: Adobe Illustrator 15.0.0, SVG Export Plug-In . SVG Version: 6.00 Build 0)  -->
<!DOCTYPE svg PUBLIC "-//W3C//DTD SVG 1.1//EN" "http://www.w3.org/Graphics/SVG/1.1/DTD/svg11.dtd">
<svg version="1.1" id="Layer_1" xmlns="http://www.w3.org/2000/svg" xmlns:xlink="http://www.w3.org/1999/xlink" x="0px" y="0px"
	 width="26px" height="26px" viewBox="0 0 26 26" enable-background="new 0 0 26 26" xml:space="preserve">
<path d="M20.37,16.88c-0.301-0.388-0.739-0.603-1.193-0.636c0.116-0.357,0.118-0.755-0.034-1.13
	c-0.265-0.65-0.893-1.039-1.553-1.033c0.488-0.593,0.454-1.469-0.106-2.015c-0.592-0.576-1.538-0.564-2.113,0.028
	c-0.494,0.507-1,0.803-1.784,0.702c0.148-0.101,0.287-0.193,0.404-0.269c1.295-0.856,2.318-1.532,1.964-2.791
	c-0.079-0.28-0.329-0.857-1.085-1.105c-1.965-0.222-0.432-3.011-0.432-3.011s-3.134,3.203-2.431,4.635
	c-1.342,0.896-2.525,1.779-2.446,3.065c0.018,0.298,0.11,0.578,0.259,0.826c-0.059-0.026-0.104-0.051-0.117-0.057
	c-0.799-0.439-1.805-0.148-2.25,0.648c-0.267,0.481-0.086,1.613,2.182,2.504c0.286,0.285-1.768-0.713-2.452-0.499
	C6.5,16.956,6.415,17.119,6.19,17.515c-0.453,0.797-0.174,1.812,0.624,2.264c0.22,0.125,3.995,1.767,8.188,1.389
	c1.69-0.154,3.448-0.71,5.067-1.958C20.795,18.649,20.929,17.606,20.37,16.88z"/>
</svg>
