<?xml version="1.0" encoding="iso-8859-1"?>
<!-- Generator: Adobe Illustrator 17.1.0, SVG Export Plug-In . SVG Version: 6.00 Build 0)  -->
<!DOCTYPE svg PUBLIC "-//W3C//DTD SVG 1.1//EN" "http://www.w3.org/Graphics/SVG/1.1/DTD/svg11.dtd">
<svg version="1.1" id="Capa_1" xmlns="http://www.w3.org/2000/svg" xmlns:xlink="http://www.w3.org/1999/xlink" x="0px" y="0px"
	 viewBox="0 0 150 150" style="enable-background:new 0 0 150 150;" xml:space="preserve">
<g>
	<path d="M133.357,67.366c-0.157,0.207-0.313,0.413-0.473,0.62c-9.38,12.2-22.954,24.904-38.776,36.212
		c-15.49,11.07-31.431,19.569-45.462,24.505c-0.247,0.087-0.497,0.178-0.743,0.263c-0.229,0.079-0.456,0.154-0.685,0.231
		c8.911,5.314,19.207,8.246,29.847,8.246c12.162,0,23.838-3.75,33.766-10.846c19.493-13.932,27.795-37.771,22.973-59.817
		C133.658,66.975,133.505,67.171,133.357,67.366z"/>
	<path d="M126.306,26.407c-5.32,0-11.714,1.173-18.792,3.373c-0.653-0.402-1.312-0.792-1.98-1.168
		c-0.673-0.378-1.347-0.753-2.034-1.104c-2.989-1.527-6.112-2.781-9.328-3.773c-0.087-0.027-0.175-0.052-0.263-0.079
		c-0.947-0.289-1.904-0.55-2.867-0.791c-0.198-0.049-0.395-0.098-0.594-0.145c-0.856-0.204-1.718-0.385-2.585-0.551
		c-0.273-0.052-0.545-0.106-0.819-0.154c-0.805-0.142-1.615-0.26-2.428-0.368c-0.315-0.042-0.629-0.09-0.946-0.127
		c-0.81-0.094-1.625-0.161-2.44-0.221c-0.306-0.022-0.611-0.056-0.918-0.074c-1.111-0.064-2.226-0.101-3.345-0.101
		c-12.162,0-23.838,3.75-33.766,10.846c-0.779,0.557-1.538,1.132-2.281,1.72c-0.279,0.221-0.546,0.452-0.82,0.678
		c-0.451,0.37-0.903,0.74-1.34,1.121c-0.337,0.294-0.662,0.598-0.99,0.898c-0.354,0.323-0.71,0.646-1.054,0.977
		c-0.357,0.343-0.704,0.695-1.051,1.046c-0.296,0.299-0.591,0.597-0.879,0.901c-0.364,0.385-0.719,0.775-1.071,1.168
		c-0.251,0.28-0.5,0.561-0.745,0.845c-0.363,0.422-0.719,0.848-1.068,1.278c-0.215,0.265-0.428,0.532-0.638,0.8
		c-0.356,0.454-0.706,0.912-1.047,1.376c-0.186,0.253-0.368,0.509-0.55,0.764c-0.344,0.484-0.684,0.97-1.013,1.463
		c-0.162,0.244-0.318,0.491-0.476,0.737c-0.329,0.51-0.655,1.022-0.967,1.541c-0.141,0.235-0.275,0.475-0.412,0.712
		c-0.312,0.535-0.622,1.071-0.916,1.615c-0.121,0.224-0.232,0.452-0.35,0.678c-0.294,0.562-0.588,1.124-0.863,1.695
		c-0.087,0.181-0.165,0.366-0.25,0.548c-0.41,0.874-0.796,1.759-1.162,2.651c-0.227,0.555-0.457,1.109-0.666,1.669
		c-0.094,0.251-0.176,0.506-0.267,0.758c-0.22,0.615-0.439,1.231-0.638,1.853c-0.068,0.213-0.128,0.428-0.194,0.641
		c-0.208,0.674-0.409,1.349-0.592,2.03c-0.046,0.171-0.087,0.343-0.132,0.514c-0.191,0.735-0.371,1.473-0.533,2.215
		c-0.027,0.124-0.052,0.248-0.078,0.372c-0.169,0.801-0.325,1.606-0.461,2.413c-0.012,0.071-0.023,0.143-0.035,0.214
		c-0.144,0.875-0.27,1.752-0.374,2.633c-0.001,0.009-0.002,0.017-0.003,0.026c-0.571,4.82-0.55,9.719,0.103,14.584
		c0.103,0.77,0.218,1.539,0.353,2.307c0.132,0.749,0.279,1.496,0.441,2.242c-10.402,13.844-14.449,26.097-9.515,33.001
		c2.653,3.712,7.608,5.47,14.181,5.47c5.298,0,11.652-1.149,18.696-3.332c0.212-0.066,0.422-0.129,0.635-0.196
		c0.239-0.076,0.479-0.154,0.719-0.232c14.051-4.562,30.704-13.133,47.227-24.943c17.056-12.19,30.886-25.626,39.727-37.743
		c0.145-0.199,0.284-0.396,0.426-0.594c0.137-0.19,0.275-0.381,0.41-0.571c9.11-12.867,12.446-24.132,7.794-30.64
		C137.83,28.165,132.875,26.407,126.306,26.407z M125.783,48.675c-0.093,0.207-0.189,0.415-0.287,0.624
		c-5.636,11.976-20.795,27.57-40.734,41.822c-19.259,13.765-38.258,22.901-51.388,24.819c-0.232,0.034-0.452,0.054-0.68,0.083
		c-0.227,0.029-0.454,0.058-0.677,0.083c-1.199,0.133-2.365,0.225-3.451,0.225c-4.87,0-8.554-1.354-10.631-4.261
		c-3.099-4.336-1.938-11.207,2.521-19.263c0.193,0.811,0.404,1.619,0.634,2.424c0.232,0.813,0.481,1.623,0.75,2.429
		c0.271,0.812,0.56,1.621,0.869,2.425c0.057,0.15,0.119,0.299,0.178,0.448c0.273,0.694,0.558,1.386,0.86,2.074
		c0.109,0.248,0.223,0.495,0.336,0.742c0.266,0.584,0.541,1.166,0.828,1.745c0.154,0.31,0.313,0.619,0.473,0.927
		c0.14,0.269,0.268,0.541,0.412,0.809c0.013,0.023,0.037,0.034,0.053,0.055c1.104,2.044,2.331,4.046,3.705,5.988
		c0.222-0.008,0.444-0.017,0.672-0.031c0.234-0.015,0.452-0.011,0.691-0.032c12.436-1.072,31.958-10.24,51.864-24.467
		c22.784-16.284,36.469-32.12,40.469-42.42c0.085-0.219,0.153-0.428,0.229-0.642c0.076-0.213,0.158-0.429,0.226-0.637
		c-0.961-1.295-1.972-2.542-3.029-3.743c-0.018-0.031-0.021-0.068-0.046-0.096c-0.166-0.188-0.343-0.364-0.511-0.55
		c-0.166-0.183-0.336-0.362-0.504-0.542c-0.635-0.683-1.282-1.354-1.947-2.003c-0.105-0.102-0.21-0.203-0.316-0.305
		c-0.762-0.734-1.541-1.446-2.339-2.135c-0.024-0.021-0.048-0.042-0.073-0.063c-0.655-0.563-1.32-1.111-1.998-1.644
		c-0.678-0.533-1.364-1.053-2.064-1.554c-0.695-0.497-1.395-0.986-2.11-1.452c1.999-0.292,3.884-0.444,5.628-0.444
		c5.481,0,9.612,1.466,11.824,4.561c2.361,3.304,2.146,7.927-0.156,13.368C125.977,48.251,125.878,48.464,125.783,48.675z"/>
</g>
</svg>
