<?xml version="1.0" encoding="utf-8"?>
<!-- Generator: Adobe Illustrator 16.0.0, SVG Export Plug-In . SVG Version: 6.00 Build 0)  -->
<!DOCTYPE svg PUBLIC "-//W3C//DTD SVG 1.1//EN" "http://www.w3.org/Graphics/SVG/1.1/DTD/svg11.dtd">
<svg version="1.1" id="Layer_1" xmlns="http://www.w3.org/2000/svg" xmlns:xlink="http://www.w3.org/1999/xlink" x="0px" y="0px"
	 width="48px" height="48px" viewBox="0 0 48 48" enable-background="new 0 0 48 48" xml:space="preserve">
<path d="M45.665,14.896c-0.465-0.754-1.231-1.284-2.102-1.453L10.676,7.034l-0.157-0.939C10.363,5.16,9.805,4.349,8.988,3.87
	c-0.845-0.495-2.563-1.521-3.9-2.32C4.071,0.942,2.755,1.271,2.146,2.287L2.13,2.312C1.874,2.74,1.798,3.251,1.919,3.735
	c0.121,0.483,0.43,0.899,0.857,1.155c1.213,0.727,2.83,1.692,3.812,2.271l3.735,22.363c0.231,1.378,1.31,2.416,2.651,2.621v5.078
	c-1.508,0.916-2.519,2.575-2.519,4.465c0,2.878,2.342,5.22,5.219,5.22c2.878,0,5.22-2.341,5.22-5.22c0-1.27-0.457-2.435-1.214-3.341
	h13.476c-0.756,0.906-1.213,2.071-1.213,3.341c0,2.878,2.342,5.22,5.22,5.22c2.877,0,5.219-2.341,5.219-5.22
	c0-2.479-1.739-4.56-4.061-5.088v-4.474l1.161-0.002c1.417-0.002,2.674-0.957,3.058-2.322l3.479-12.376
	C46.259,16.573,46.13,15.652,45.665,14.896z M37.115,28.077l-4.526,0.01V15.434l4.526,0.888V28.077z M17.349,28.122v-15.65
	l4.602,0.889v14.751L17.349,28.122z M24.969,13.952l4.602,0.889v13.252l-4.602,0.01V13.952z M14.332,11.879v16.249l-0.138,0
	L11.38,11.304L14.332,11.879z M15.674,42.855c-0.643,0-1.166-0.523-1.166-1.166s0.523-1.166,1.166-1.166
	c0.643,0,1.166,0.523,1.166,1.166S16.317,42.855,15.674,42.855z M37.163,42.855c-0.642,0-1.166-0.523-1.166-1.166
	s0.523-1.166,1.166-1.166c0.643,0,1.166,0.523,1.166,1.166S37.806,42.855,37.163,42.855z M34.248,34.274H17.047v-2.098l17.201-0.04
	V34.274z M40.208,23.2v-6.286l1.675,0.327L40.208,23.2z"/>
</svg>
