<?xml version="1.0" encoding="utf-8"?>
<!-- Generator: Adobe Illustrator 17.1.0, SVG Export Plug-In . SVG Version: 6.00 Build 0)  -->
<!DOCTYPE svg PUBLIC "-//W3C//DTD SVG 1.1//EN" "http://www.w3.org/Graphics/SVG/1.1/DTD/svg11.dtd">
<svg version="1.1" id="Layer_1" xmlns="http://www.w3.org/2000/svg" xmlns:xlink="http://www.w3.org/1999/xlink" x="0px" y="0px"
	 width="1000px" height="1000px" viewBox="0 0 1000 1000" enable-background="new 0 0 1000 1000" xml:space="preserve">
<g>
	<path style="fill: hsl(30,100%,50%)" d="M352.389,341.562c45.758,3.359,83.48,35.367,95.401,78.183c0.768,2.76,3.248,4.691,6.113,4.691h82.465
		c4.536,0,8.322,3.462,8.727,7.98l36.914,412.411c0.404,4.518,4.191,7.98,8.727,7.98h320.297c5.147,0,9.186-4.416,8.727-9.542
		l-60.46-675.621c-0.404-4.518-4.19-7.981-8.727-7.981H728.496c-2.543,0-4.65-1.957-4.854-4.492
		C718.713,94.043,667.681,45.94,605.289,45.94c-62.393,0-113.416,48.103-118.352,109.232c-0.205,2.535-2.311,4.491-4.854,4.491
		H370.356c-4.536,0-8.322,3.462-8.727,7.98l-14.97,167.159C346.35,338.26,348.927,341.308,352.389,341.562z M605.298,66.299
		c50.83,0,92.679,38.721,97.859,88.207c0.288,2.751-1.841,5.158-4.607,5.158H512.046c-2.766,0-4.895-2.407-4.607-5.158
		C512.619,105.02,554.468,66.299,605.298,66.299z"/>
	<path style="fill: hsl(30,100%,50%)" d="M129.504,951.06h427.44c7.127,0,12.718-6.114,12.083-13.212l-43.231-483.012c-0.56-6.256-5.802-11.05-12.083-11.05h-81.631
		c-3.188,0-5.884-2.393-6.223-5.563c-4.676-43.643-41.516-77.664-86.414-77.664c-44.89,0-81.737,34.013-86.414,77.664
		c-0.34,3.17-3.035,5.563-6.223,5.563h-74.072c-6.281,0-11.523,4.794-12.083,11.05l-43.231,483.012
		C116.785,944.946,122.377,951.06,129.504,951.06z M273.74,436.768c5.174-31.625,32.616-55.85,65.694-55.85
		c33.078,0,60.519,24.225,65.701,55.849c0.602,3.672-2.2,7.02-5.921,7.02H279.661C275.941,443.786,273.14,440.439,273.74,436.768z"
		/>
</g>
</svg>
