<?xml version="1.0" encoding="utf-8"?>
<!-- Generator: Adobe Illustrator 17.0.0, SVG Export Plug-In . SVG Version: 6.00 Build 0)  -->
<!DOCTYPE svg PUBLIC "-//W3C//DTD SVG 1.1//EN" "http://www.w3.org/Graphics/SVG/1.1/DTD/svg11.dtd">
<svg version="1.1" id="Capa_1" xmlns="http://www.w3.org/2000/svg" xmlns:xlink="http://www.w3.org/1999/xlink" x="0px" y="0px"
	 width="64px" height="64px" viewBox="0 0 64 64" enable-background="new 0 0 64 64" xml:space="preserve">
<g>
	<path d="M57.095,27.94c-0.71-4.374-2.535-8.379-5.187-11.702c-0.022-0.027-0.043-0.055-0.065-0.083
		c-1.707-2.122-3.749-3.961-6.045-5.442c-0.017-0.02-0.034-0.042-0.051-0.061c-0.141-0.166-0.328-0.258-0.524-0.307
		c-3.709-2.253-8.042-3.569-12.672-3.647c-0.035,0.001-0.07-0.008-0.105-0.004c-0.109-0.001-0.216-0.011-0.325-0.011
		c-1.671,0-3.304,0.167-4.886,0.478c-0.007,0.001-0.014-0.002-0.021-0.001c-0.008,0.001-0.014,0.007-0.022,0.008
		c-1.093,0.217-2.156,0.515-3.194,0.868c-0.021,0.003-0.04,0.015-0.061,0.02c-3.646,1.25-6.924,3.3-9.608,5.956
		c-0.029,0.029-0.059,0.055-0.088,0.084c-1.056,1.055-2.014,2.205-2.872,3.432c-0.027,0.038-0.055,0.076-0.081,0.114
		c-1.511,2.187-2.675,4.627-3.442,7.235c-0.009,0.037-0.026,0.072-0.03,0.11c-0.644,2.228-1.005,4.574-1.005,7.007
		c0,2.017,0.244,3.978,0.692,5.86c0.007,0.028,0.013,0.057,0.02,0.085c1.039,4.298,3.175,8.169,6.098,11.302
		c0.039,0.042,0.08,0.083,0.119,0.125c1.808,1.912,3.907,3.546,6.23,4.823c0.003,0.002,0.007,0.004,0.01,0.006
		c3.606,1.98,7.743,3.109,12.14,3.109c0,0,0,0,0,0s0,0,0,0c0,0,0,0,0.001,0c1.157,0,2.293-0.085,3.409-0.236
		c0.021-0.002,0.041-0.002,0.062-0.005c0.004-0.001,0.007-0.004,0.011-0.004c5.81-0.804,10.993-3.585,14.851-7.643
		c0.05-0.053,0.101-0.105,0.151-0.159c2.171-2.323,3.908-5.053,5.087-8.063c0.013-0.034,0.027-0.068,0.041-0.103
		c1.092-2.825,1.698-5.891,1.698-9.097c0-1.331-0.119-2.633-0.318-3.909C57.107,28.036,57.108,27.987,57.095,27.94z M37.83,54.595
		c-0.52,0.131-1.048,0.241-1.581,0.336l-0.748-4.453c2.228-0.362,4.272-0.835,6.135-1.394c-1.845,3.503-3.731,5.42-3.771,5.459
		C37.849,54.557,37.844,54.578,37.83,54.595z M13.772,40.857c1.456,0.396,3.171,0.748,5.153,0.99c1.133,2.879,2.539,5.3,4.002,7.306
		c-2.039-0.142-3.811-0.408-5.325-0.733C16.183,46.375,14.815,43.865,13.772,40.857z M8.81,31.994c0-1.872,0.228-3.692,0.647-5.438
		c0.241,0.11,0.53,0.232,0.845,0.358c-0.397,3.292-0.358,6.844,0.438,10.523c0.021,0.098,0.047,0.19,0.069,0.287
		c-0.599-0.263-1.081-0.506-1.447-0.71C9.004,35.397,8.81,33.718,8.81,31.994z M12.694,37.015c-0.707-3.272-0.78-6.448-0.464-9.413
		c1.195,0.376,2.661,0.746,4.381,1.04c-0.091,2.475,0.088,5.076,0.665,7.749c0.254,1.174,0.56,2.284,0.899,3.346
		c-2.034-0.301-3.727-0.72-5.102-1.163C12.938,38.065,12.81,37.548,12.694,37.015z M14.057,19.575
		c1.282,0.221,2.603,0.366,3.948,0.459c-0.574,2.015-1.028,4.227-1.256,6.576c-1.687-0.3-3.111-0.673-4.233-1.038
		C12.878,23.425,13.422,21.406,14.057,19.575z M26.569,9.356l1.39,8.277c-2.649,0.382-5.056,0.521-7.202,0.506
		c1.547-4.336,3.451-7.389,4.032-8.269C25.373,9.677,25.966,9.504,26.569,9.356z M21.021,20.151c2.334,0,4.75-0.18,7.235-0.539
		c0.012-0.002,0.023-0.004,0.034-0.006l1.211,7.211c-4.211,0.523-7.807,0.446-10.748,0.089c0.238-2.432,0.736-4.716,1.353-6.78
		C20.411,20.133,20.712,20.151,21.021,20.151z M19.231,35.968c-0.521-2.411-0.685-4.772-0.61-7.034
		c1.49,0.173,3.135,0.28,4.934,0.28c1.917,0,4.018-0.13,6.278-0.416l1.828,10.887c-4.433,0.573-8.181,0.593-11.285,0.31
		C19.931,38.738,19.541,37.4,19.231,35.968z M31.81,28.494c4.739-0.813,8.573-2.343,11.562-4.032
		c0.85,2.336,1.466,4.881,1.682,7.606c0.104,1.316,0.105,2.564,0.061,3.776c-3.017,1.474-6.803,2.784-11.473,3.557L31.81,28.494z
		 M47.048,31.91c-0.244-3.078-0.951-5.922-1.917-8.509c1.852-1.206,3.291-2.414,4.363-3.44c1.53,3.139,2.716,6.777,3.037,10.82
		c0.001,0.016,0.001,0.031,0.003,0.046c-1.278,1.194-3.042,2.591-5.374,3.934C47.16,33.838,47.126,32.889,47.048,31.91z
		 M44.847,12.702c1.221,1.514,2.504,3.329,3.67,5.402c-0.962,0.958-2.34,2.162-4.163,3.385c-1.015-2.29-2.217-4.345-3.452-6.141
		C42.441,14.471,43.752,13.561,44.847,12.702z M42.617,22.573c-2.849,1.646-6.552,3.159-11.138,3.949l-1.219-7.26
		c3.432-0.682,6.365-1.749,8.823-2.956C40.352,18.126,41.591,20.225,42.617,22.573z M21.189,42.066
		c1.04,0.072,2.14,0.112,3.304,0.112c2.258,0,4.765-0.161,7.5-0.518l1.197,7.132c-2.818,0.358-5.354,0.49-7.619,0.464
		C24.014,47.355,22.455,44.976,21.189,42.066z M35.17,48.506l-1.197-7.131c4.365-0.721,7.993-1.879,10.977-3.214
		c-0.36,3.274-1.179,6.107-2.154,8.451C40.568,47.389,38.029,48.042,35.17,48.506z M47.079,37.126
		c2.287-1.205,4.119-2.486,5.554-3.677c-0.003,3.333-0.514,6.276-1.247,8.786c-1.62,1.156-3.608,2.325-6.022,3.371
		C46.205,43.175,46.859,40.342,47.079,37.126z M55.432,31.994c0,2.86-0.521,5.6-1.467,8.135c0.511-2.511,0.777-5.343,0.622-8.464
		c0.302-0.306,0.574-0.597,0.815-0.868C55.421,31.193,55.432,31.592,55.432,31.994z M54.342,28.937
		c-0.538-3.927-1.816-7.451-3.376-10.499c0.017-0.02,0.04-0.044,0.057-0.063c2.026,2.804,3.442,6.073,4.058,9.614
		C54.928,28.205,54.686,28.528,54.342,28.937z M43.166,11.471c-0.978,0.738-2.124,1.505-3.444,2.244
		c-1.542-2.026-3.053-3.638-4.235-4.786C38.229,9.327,40.818,10.202,43.166,11.471z M32.121,8.683c0.036,0,0.071,0.003,0.107,0.003
		c0.764,0.638,3.14,2.729,5.655,5.984c-2.236,1.067-4.884,2.004-7.953,2.619L28.531,8.96C29.701,8.778,30.9,8.683,32.121,8.683z
		 M18.618,18.07c-1.429-0.082-2.703-0.231-3.838-0.411c0.322-0.797,0.652-1.551,0.984-2.253c1.727-1.703,3.718-3.136,5.904-4.238
		C20.743,12.84,19.592,15.203,18.618,18.07z M11.436,21.266c-0.323,1.149-0.604,2.35-0.829,3.598
		c-0.227-0.096-0.422-0.183-0.589-0.261C10.405,23.447,10.88,22.333,11.436,21.266z M11.434,40.124
		c0.808,2.695,1.869,5.042,3.03,7.063c-1.906-2.212-3.404-4.783-4.377-7.599C10.492,39.762,10.936,39.942,11.434,40.124z
		 M20.949,52.446c-0.492-0.495-1.007-1.05-1.533-1.668c1.531,0.231,3.251,0.396,5.166,0.456c1.39,1.604,2.752,2.855,3.908,3.786
		C25.797,54.597,23.255,53.711,20.949,52.446z M32.373,55.298c-0.641-0.375-2.687-1.664-5.027-4.056
		c1.896-0.044,3.954-0.195,6.175-0.479l0.745,4.439C33.642,55.259,33.01,55.291,32.373,55.298z M44.354,48.165
		c2.279-0.857,4.254-1.827,5.941-2.831c-0.413,0.999-0.846,1.897-1.271,2.687c-2.143,2.259-4.731,4.092-7.625,5.352
		C42.311,52.09,43.382,50.345,44.354,48.165z"/>
</g>
</svg>
