<?xml version="1.0" encoding="iso-8859-1"?>
<!-- Generator: Adobe Illustrator 17.1.0, SVG Export Plug-In . SVG Version: 6.00 Build 0)  -->
<!DOCTYPE svg PUBLIC "-//W3C//DTD SVG 1.1//EN" "http://www.w3.org/Graphics/SVG/1.1/DTD/svg11.dtd">
<svg version="1.1" id="Capa_1" xmlns="http://www.w3.org/2000/svg" xmlns:xlink="http://www.w3.org/1999/xlink" x="0px" y="0px"
	 viewBox="0 0 52.692 48.119" style="enable-background:new 0 0 52.692 48.119;" xml:space="preserve">
<path d="M0,0v48.119h21.825c0-8.885-7.905-16.324-13.134-19.979C22.916,20.431,25.237,6.077,25.549,4.157h1.594
	c0.312,1.92,2.633,16.274,16.858,23.983c-5.229,3.655-13.134,11.094-13.134,19.979h21.825V0H0z M11.909,14.176
	c-1.557,4.229-4.108,9.224-7.752,10.512V4.157h10.416C14.193,6.267,13.361,10.232,11.909,14.176z M48.535,24.688
	c-3.644-1.288-6.195-6.283-7.752-10.512c-1.452-3.944-2.283-7.909-2.664-10.019h10.416V24.688z"/>
<g>
</g>
<g>
</g>
<g>
</g>
<g>
</g>
<g>
</g>
<g>
</g>
<g>
</g>
<g>
</g>
<g>
</g>
<g>
</g>
<g>
</g>
<g>
</g>
<g>
</g>
<g>
</g>
<g>
</g>
</svg>
