<?xml version="1.0" encoding="iso-8859-1"?>
<!-- Generator: Adobe Illustrator 16.0.4, SVG Export Plug-In . SVG Version: 6.00 Build 0)  -->
<!DOCTYPE svg PUBLIC "-//W3C//DTD SVG 1.1//EN" "http://www.w3.org/Graphics/SVG/1.1/DTD/svg11.dtd">
<svg version="1.1" id="Capa_1" xmlns="http://www.w3.org/2000/svg" xmlns:xlink="http://www.w3.org/1999/xlink" x="0px" y="0px"
	 width="21.711px" height="21.373px" viewBox="0 0 21.711 21.373" style="enable-background:new 0 0 21.711 21.373;"
	 xml:space="preserve">
<g>
	<path style="fill:#231F20;" d="M0.123,12.291c0.119,0.686,0.143,0.765,0.434,1.743l0,0c0.104,0.294,0.262,0.68,0.379,0.97l0,0
		c2.213,1.451,15.523,6.292,19.133,1.367l0,0l0.341-0.58c0.228-0.457,0.509-1.08,0.702-1.555l0,0
		c0.216-0.607,0.226-0.649,0.468-1.741l0,0c0.039-0.223,0.074-0.505,0.105-0.757l0,0C21.024,15.863,12.296,16.617,0,11.14
		C0.024,11.486,0.082,11.947,0.123,12.291L0.123,12.291z M21.684,11.738L21.684,11.738c0.009-0.076,0.018-0.149,0.027-0.217
		C21.704,11.595,21.695,11.667,21.684,11.738z"/>
	<path style="fill:#231F20;" d="M3.988,18.99c0.167,0.137,0.174,0.142,0.497,0.383l0,0c0.157,0.113,0.157,0.113,0.443,0.305l0,0
		l0.111,0.07c0.663,0.413,4.092,1.982,7.573,1.55l0,0c0.262-0.044,0.608-0.123,0.868-0.177l0,0c0.663-0.169,0.741-0.201,1.699-0.57
		l0,0c0.596-0.262,0.631-0.282,1.567-0.832l0,0c0.228-0.147,0.518-0.361,0.739-0.519c-4.248,2.871-13.743-0.796-15.063-1.778
		C3.062,18.204,3.619,18.678,3.988,18.99L3.988,18.99z"/>
	<path style="fill:#231F20;" d="M6.549,0.564c-0.595,0.26-0.632,0.281-1.566,0.831l0,0L4.55,1.689
		c0.015,0.003,0.06,0.025,0.167,0.076l0,0C5.681,2.224,9.07,3.775,12.262,4.5l0,0c2.265,0.514,4.19,0.555,5.151,0.11l0,0
		c1.597-0.74,0.201-2.578-1.515-3.223l0,0c0.064,0.066,0.24,0.243,0.272,0.421l0,0C16.434,3.267,9.847,1.134,8.214,0
		C7.578,0.164,7.521,0.187,6.549,0.564L6.549,0.564z"/>
	<path style="fill:#231F20;" d="M19.437,4.114c1.25,2.23-0.211,3.527-3.909,3.474l0,0C10.791,7.519,5.146,5.077,3.022,4.158l0,0
		c-0.579-0.25-0.579-0.25-0.74-0.295l0,0C1.979,4.288,1.597,4.871,1.327,5.318l0,0C1.013,5.895,0.997,5.937,0.58,7.002l0,0
		L0.361,7.71c0.115,0.027,0.115,0.027,0.646,0.248l0,0c2.519,1.041,9.209,3.808,15.473,3.65l0,0
		c2.706-0.067,5.727-0.889,4.737-4.419l0,0c-0.247-0.723-0.307-0.851-0.706-1.681l0,0c-0.371-0.709-0.753-1.231-1.062-1.65l0,0
		c-0.73-0.915-1.246-1.353-1.701-1.739l0,0c-0.208-0.169-0.439-0.313-0.695-0.427C18.05,2.327,18.94,3.232,19.437,4.114
		L19.437,4.114z"/>
</g>
<g>
</g>
<g>
</g>
<g>
</g>
<g>
</g>
<g>
</g>
<g>
</g>
<g>
</g>
<g>
</g>
<g>
</g>
<g>
</g>
<g>
</g>
<g>
</g>
<g>
</g>
<g>
</g>
<g>
</g>
</svg>
