<?xml version="1.0" encoding="utf-8"?>
<!-- Generator: Adobe Illustrator 16.0.0, SVG Export Plug-In . SVG Version: 6.00 Build 0)  -->
<!DOCTYPE svg PUBLIC "-//W3C//DTD SVG 1.1//EN" "http://www.w3.org/Graphics/SVG/1.1/DTD/svg11.dtd">
<svg version="1.1" id="Layer_1" xmlns="http://www.w3.org/2000/svg" xmlns:xlink="http://www.w3.org/1999/xlink" x="0px" y="0px"
	 width="500px" height="500px" viewBox="0 0 500 500" enable-background="new 0 0 500 500" xml:space="preserve">
<g>
	<path d="M30.126,384.908h49.091c4.218-6.35,9.918-11.854,16.689-16.141v-16.862c0-23.809,18.941-43.652,43.824-47.736
		c-10.725-30.66-19.965-64.587-20.388-91.302H30.126V384.908z"/>
	<path d="M360.27,304.169c24.883,4.084,43.824,23.928,43.824,47.736v16.862c6.771,4.287,12.472,9.791,16.689,16.141h49.091V212.867
		h-89.216C380.234,239.582,370.994,273.509,360.27,304.169z"/>
	<path d="M475.546,34.802c8.368,0,15.151-6.782,15.151-15.149s-6.783-15.149-15.151-15.149H250.25h-0.5H24.454
		c-8.368,0-15.151,6.782-15.151,15.149s6.783,15.149,15.151,15.149h5.672V199h89.847c0.157-1.545,0.619-4.441,1.975-7.429
		c2.99-6.59,8.314-13.529,17.142-18.087c69.123-35.69,100.56-118.188,107.464-138.683h3.197h0.5h3.197
		c6.904,20.495,38.341,102.992,107.464,138.683c8.827,4.558,14.151,11.497,17.142,18.087c1.355,2.987,1.817,5.883,1.975,7.429
		h89.847V34.802H475.546z"/>
	<polygon points="335.253,193.727 276.345,185.167 250,131.786 223.655,185.167 164.747,193.727 207.373,235.277 197.311,293.948 
		250,266.248 302.689,293.948 292.627,235.277 	"/>
	<path d="M252.914,367.166c12.481,0,23.935,3.833,32.852,10.193v-26.791c0-15.751-14.911-28.521-33.305-28.521h-3.328
		c-18.393,0-33.303,12.77-33.303,28.521v27.009c8.957-6.488,20.523-10.411,33.144-10.411H252.914z"/>
	<path d="M152.788,322.048h-3.328c-18.394,0-33.304,12.77-33.304,28.521v18.451c4.671-1.2,9.615-1.854,14.734-1.854h3.942
		c24.254,0,44.627,14.468,50.012,33.855c0.806-2.458,1.247-5.047,1.247-7.727v-42.727
		C186.092,334.817,171.182,322.048,152.788,322.048z"/>
	<path d="M369.108,367.166c5.121,0,10.064,0.653,14.734,1.854v-18.451c0-15.751-14.91-28.521-33.303-28.521h-3.328
		c-18.393,0-33.304,12.77-33.304,28.521v42.727c0,2.68,0.441,5.269,1.247,7.727c5.385-19.388,25.758-33.855,50.013-33.855H369.108z"
		/>
	<path d="M252.914,383.246h-3.94c-21.79,0-39.455,14.366-39.455,32.089v48.073c0,17.723,17.665,32.089,39.455,32.089h3.94
		c21.792,0,39.456-14.366,39.456-32.089v-48.073C292.37,397.612,274.706,383.246,252.914,383.246z"/>
	<path d="M134.833,383.246h-3.942c-21.79,0-39.454,14.366-39.454,32.089v48.073c0,17.723,17.664,32.089,39.454,32.089h3.942
		c21.791,0,39.455-14.366,39.455-32.089v-48.073C174.288,397.612,156.624,383.246,134.833,383.246z"/>
	<path d="M369.108,383.246h-3.94c-21.792,0-39.456,14.366-39.456,32.089v48.073c0,17.723,17.664,32.089,39.456,32.089h3.94
		c21.791,0,39.455-14.366,39.455-32.089v-48.073C408.563,397.612,390.899,383.246,369.108,383.246z"/>
</g>
</svg>
