<?xml version="1.0" encoding="iso-8859-1"?><!-- Generator: Adobe Illustrator 17.0.0, SVG Export Plug-In . SVG Version: 6.00 Build 0) --><!DOCTYPE svg PUBLIC "-//W3C//DTD SVG 1.1//EN" "http://www.w3.org/Graphics/SVG/1.1/DTD/svg11.dtd"><svg version="1.1" id="Capa_1" xmlns="http://www.w3.org/2000/svg" xmlns:xlink="http://www.w3.org/1999/xlink" x="0px" y="0px" width="64px" height="64px" viewBox="0 0 64 64" style="enable-background:new 0 0 64 64;" xml:space="preserve"><path d="M60.391,2.641L59.77,3.182l-0.446-0.446l-0.453,0.453l-0.485-0.485l-0.848,0.848l0.485,0.485L57.571,4.49l0.327,0.327	l-5.273,4.319l0.239,0.238L40.213,21.287c-4.312-3.42-9.83-3.837-12.919-0.748c-1.104,1.103-2.157,2.923-2.932,5.023	c-0.679,0.487-1.481,0.921-2.214,0.949c0,0,2.827,2.636-1.461,6.162c-4.288,3.526-6.416,1.525-7.369,0.381	c0,0-0.16,1.23-1.193,2.642c-2.886,0.597-5.707,1.801-7.51,3.838c-4.891,5.527-1.906,12.578,2.35,16.834	c5.219,5.219,11.879,8.449,17.342,2.986c1.903-1.903,3.186-4.612,3.758-7.52c1.458-1.108,2.754-1.278,2.754-1.278	c-1.143-0.953-3.144-3.081,0.381-7.369c3.526-4.288,6.162-1.461,6.162-1.461c0.026-0.713,0.438-1.491,0.909-2.157	c2.13-0.777,3.978-1.841,5.094-2.956c3.089-3.089,2.672-8.607-0.748-12.919l11.916-12.655l0.235,0.234l4.341-5.242l0.305,0.305	l0.453-0.453l0.485,0.485L61.2,5.518l-0.485-0.485l0.453-0.453l-0.416-0.416l0.544-0.618L60.391,2.641z"/></svg>